<svg width="540" height="406" viewBox="0 0 540 406" fill="none" xmlns="http://www.w3.org/2000/svg">
<g clip-path="url(#clip0_28_466)">
<path d="M359.588 406L359.473 405.99L180.413 390.509L17.5877 404.586C13.3364 404.954 9.10233 403.735 5.81697 401.197C2.5316 398.659 0.464047 395.01 0.0691386 391.053C0.0231746 390.593 0.000174254 390.131 0.000134316 389.668V29.2539C-0.0163004 25.5157 1.476 21.908 4.18159 19.1452C6.88718 16.3824 10.6088 14.6658 14.6096 14.3353L180.413 0L180.528 0.0101242L359.588 15.4912L522.412 1.41366C526.664 1.04609 530.898 2.26538 534.183 4.80329C537.468 7.3412 539.536 10.9898 539.931 14.9466C539.977 15.4072 540 15.8691 540 16.3322V376.746C540.016 380.484 538.524 384.092 535.819 386.855C533.113 389.618 529.391 391.334 525.391 391.665L359.588 406Z" fill="#3F3D56"/>
<path d="M249.605 133.335C214.943 109.841 178.474 87.5622 141.218 67.1219L139.349 66.0962V135.421H252.682L249.605 133.335ZM141.825 133.116V70.1358C177.267 89.6483 211.971 110.82 245.066 133.116L141.825 133.116ZM425.023 275.806C410.032 261.302 394.654 247.127 378.888 233.284C374.542 229.463 370.168 225.673 365.768 221.914C338.914 198.955 311.177 177.12 282.557 156.409L282.223 156.167H139.349V277.76H427.041L425.023 275.806ZM141.825 275.455V158.472H281.374C308.971 178.451 335.821 199.549 361.923 221.764C366.455 225.619 370.957 229.505 375.427 233.422C391.055 247.091 406.317 261.102 421.215 275.455H141.825ZM425.023 275.806C410.032 261.302 394.654 247.127 378.888 233.284C374.542 229.463 370.168 225.673 365.768 221.914C338.914 198.955 311.177 177.12 282.557 156.409L282.223 156.167H139.349V277.76H427.041L425.023 275.806ZM141.825 275.455V158.472H281.374C308.971 178.451 335.821 199.549 361.923 221.764C366.455 225.619 370.957 229.505 375.427 233.422C391.055 247.091 406.317 261.102 421.215 275.455H141.825ZM249.605 133.335C214.943 109.841 178.474 87.5622 141.218 67.1219L139.349 66.0962V135.421H252.682L249.605 133.335ZM141.825 133.116V70.1358C177.267 89.6483 211.971 110.82 245.066 133.116L141.825 133.116ZM249.605 133.335C214.943 109.841 178.474 87.5622 141.218 67.1219L139.349 66.0962V135.421H252.682L249.605 133.335ZM141.825 133.116V70.1358C177.267 89.6483 211.971 110.82 245.066 133.116L141.825 133.116ZM425.023 275.806C410.032 261.302 394.654 247.127 378.888 233.284C374.542 229.463 370.168 225.673 365.768 221.914C338.914 198.955 311.177 177.12 282.557 156.409L282.223 156.167H139.349V277.76H427.041L425.023 275.806ZM141.825 275.455V158.472H281.374C308.971 178.451 335.821 199.549 361.923 221.764C366.455 225.619 370.957 229.505 375.427 233.422C391.055 247.091 406.317 261.102 421.215 275.455H141.825ZM16.7645 298.506V300.811H114.582V334.234H16.7645V336.54H117.058V298.506H16.7645ZM139.349 357.285V380.641L141.825 380.428V359.59H523.236V357.285L139.349 357.285ZM523.236 300.811V298.506H139.349V336.54H523.236V334.234H141.825V300.811L523.236 300.811ZM291.944 133.116C244.43 99.0036 194.251 68.2321 141.825 41.0572V17.7183L139.348 17.9316V41.4511L141.256 43.4027C193.468 70.5037 243.443 101.18 290.767 135.179L291.102 135.421H523.236V133.116L291.944 133.116ZM114.582 133.116H16.7645V135.421H117.058V19.8563L114.582 20.0695L114.582 133.116ZM523.236 156.167H319.163L321.831 158.207C346.957 177.449 371.627 197.856 395.841 219.43C399.284 222.496 402.714 225.586 406.132 228.702C423.147 244.175 439.829 260.153 456.18 276.636L458.221 277.76H523.236V275.455H458.378C442.205 259.135 425.681 243.288 408.806 227.913C405.432 224.835 402.045 221.779 398.646 218.744C374.956 197.589 350.761 177.499 326.06 158.472H523.236V156.167ZM16.7645 357.285V359.59H114.582V382.779L117.058 382.566V357.285H16.7645ZM16.7645 156.167V158.472H114.582V275.455H16.7645V277.76H117.058V156.167H16.7645ZM249.605 133.335C214.943 109.841 178.474 87.5622 141.218 67.1219L139.348 66.0962V135.421H252.682L249.605 133.335ZM141.825 133.116V70.1358C177.267 89.6483 211.971 110.82 245.066 133.116L141.825 133.116ZM425.023 275.806C410.032 261.302 394.654 247.127 378.888 233.284C374.542 229.463 370.168 225.673 365.768 221.914C338.914 198.955 311.177 177.12 282.557 156.409L282.223 156.167H139.349V277.76H427.041L425.023 275.806ZM141.825 275.455V158.472H281.374C308.971 178.451 335.821 199.549 361.923 221.764C366.455 225.619 370.957 229.505 375.427 233.422C391.055 247.091 406.317 261.102 421.215 275.455H141.825ZM249.605 133.335C214.943 109.841 178.474 87.5622 141.218 67.1219L139.349 66.0962V135.421H252.682L249.605 133.335ZM141.825 133.116V70.1358C177.267 89.6483 211.971 110.82 245.066 133.116L141.825 133.116ZM425.023 275.806C410.032 261.302 394.654 247.127 378.888 233.284C374.542 229.463 370.168 225.673 365.768 221.914C338.914 198.955 311.177 177.12 282.557 156.409L282.223 156.167H139.349V277.76H427.041L425.023 275.806ZM141.825 275.455V158.472H281.374C308.971 178.451 335.821 199.549 361.923 221.764C366.455 225.619 370.957 229.505 375.427 233.422C391.055 247.091 406.317 261.102 421.215 275.455H141.825Z" fill="#0091CF"/>
<path d="M276.575 151.689C276.575 180.878 219.788 245.903 219.788 245.903C219.788 245.903 163.001 180.878 163.001 151.689C163.001 137.671 168.984 124.228 179.633 114.317C190.283 104.405 204.727 98.8368 219.788 98.8368C234.849 98.8368 249.292 104.405 259.942 114.317C270.592 124.228 276.575 137.671 276.575 151.689Z" fill="#0091CF"/>
<path d="M245.748 149.391C245.748 154.169 244.226 158.841 241.373 162.814C238.521 166.787 234.466 169.884 229.723 171.713C224.979 173.541 219.76 174.02 214.724 173.087C209.688 172.155 205.063 169.854 201.432 166.475C197.802 163.096 195.329 158.791 194.328 154.104C193.326 149.418 193.84 144.56 195.805 140.145C197.77 135.73 201.097 131.957 205.366 129.302C209.635 126.647 214.654 125.23 219.788 125.23C223.198 125.228 226.574 125.852 229.725 127.066C232.875 128.28 235.737 130.059 238.148 132.303C240.559 134.547 242.471 137.211 243.775 140.143C245.079 143.075 245.75 146.218 245.748 149.391V149.391Z" fill="white"/>
<path d="M219.788 284.048C228.242 284.048 235.095 277.67 235.095 269.801C235.095 261.933 228.242 255.554 219.788 255.554C211.333 255.554 204.48 261.933 204.48 269.801C204.48 277.67 211.333 284.048 219.788 284.048Z" fill="#0091CF"/>
<path d="M366.457 90.9493C378.956 90.9493 389.089 81.5185 389.089 69.8851C389.089 58.2516 378.956 48.8209 366.457 48.8209C353.957 48.8209 343.824 58.2516 343.824 69.8851C343.824 81.5185 353.957 90.9493 366.457 90.9493Z" fill="#FF6584"/>
<path d="M437.43 134.797H326.402C326.263 134.799 326.124 134.789 325.987 134.767L378.498 50.1123C378.818 49.5851 379.283 49.1465 379.846 48.8414C380.408 48.5362 381.047 48.3754 381.698 48.3754C382.349 48.3754 382.988 48.5362 383.55 48.8414C384.112 49.1465 384.577 49.5851 384.898 50.1123L420.14 106.922L421.828 109.64L437.43 134.797Z" fill="#0091CF"/>
<path opacity="0.2" d="M437.43 134.797H399.522L418.131 109.64L419.47 107.828L420.14 106.922L421.828 109.64L437.43 134.797Z" fill="black"/>
<path d="M499.249 134.797H403.219L421.828 109.64L423.167 107.828L447.416 75.0437C449.006 72.8951 452.83 72.7613 454.699 74.6385C454.825 74.7665 454.941 74.9019 455.048 75.0437L499.249 134.797Z" fill="#0091CF"/>
<path d="M506.375 254.131C512.701 254.131 517.83 249.358 517.83 243.47C517.83 237.583 512.701 232.809 506.375 232.809C500.049 232.809 494.92 237.583 494.92 243.47C494.92 249.358 500.049 254.131 506.375 254.131Z" fill="#0091CF"/>
<path d="M507.48 275.582H505.134L506.203 241.865L507.48 275.582Z" fill="#CBCBCB"/>
<path d="M506.41 248.255L508.929 245.011L506.375 249.058L506.1 248.608L506.41 248.255Z" fill="#CBCBCB"/>
<path d="M506.134 251.53L503.615 248.287L506.168 252.333L506.444 251.883L506.134 251.53Z" fill="#CBCBCB"/>
<path d="M473.805 243.901C483.148 243.901 490.722 236.852 490.722 228.156C490.722 219.46 483.148 212.411 473.805 212.411C464.461 212.411 456.887 219.46 456.887 228.156C456.887 236.852 464.461 243.901 473.805 243.901Z" fill="#0091CF"/>
<path d="M475.435 275.582H471.97L473.55 225.785L475.435 275.582Z" fill="#CBCBCB"/>
<path d="M473.856 235.222L477.575 230.433L473.805 236.408L473.398 235.744L473.856 235.222Z" fill="#CBCBCB"/>
<path d="M473.449 240.06L469.728 235.27L473.499 241.245L473.907 240.582L473.449 240.06Z" fill="#CBCBCB"/>
<path d="M81.0322 254.131C87.3584 254.131 92.4869 249.358 92.4869 243.47C92.4869 237.583 87.3584 232.809 81.0322 232.809C74.7059 232.809 69.5775 237.583 69.5775 243.47C69.5775 249.358 74.7059 254.131 81.0322 254.131Z" fill="#0091CF"/>
<path d="M82.1369 275.582H79.7908L80.8601 241.865L82.1369 275.582Z" fill="#CBCBCB"/>
<path d="M81.0667 248.255L83.5858 245.011L81.0323 249.058L80.7567 248.608L81.0667 248.255Z" fill="#CBCBCB"/>
<path d="M80.7912 251.53L78.2721 248.287L80.8256 252.333L81.1012 251.883L80.7912 251.53Z" fill="#CBCBCB"/>
<path d="M48.4618 243.901C57.8051 243.901 65.3794 236.852 65.3794 228.156C65.3794 219.46 57.8051 212.411 48.4618 212.411C39.1184 212.411 31.5442 219.46 31.5442 228.156C31.5442 236.852 39.1184 243.901 48.4618 243.901Z" fill="#0091CF"/>
<path d="M50.0923 275.582H46.6274L48.2075 225.785L50.0923 275.582Z" fill="#CBCBCB"/>
<path d="M48.5131 235.222L52.2326 230.433L48.4622 236.408L48.0548 235.744L48.5131 235.222Z" fill="#CBCBCB"/>
<path d="M48.1056 240.06L44.3854 235.27L48.1565 241.245L48.5639 240.582L48.1056 240.06Z" fill="#CBCBCB"/>
</g>
<defs>
<clipPath id="clip0_28_466">
<rect width="540" height="406" fill="white"/>
</clipPath>
</defs>
</svg>
